<svg id="_4" data-name="4" xmlns="http://www.w3.org/2000/svg" xmlns:xlink="http://www.w3.org/1999/xlink" width="1366" height="564.923" viewBox="0 0 1366 564.923">
  <defs>
    <linearGradient id="linear-gradient" x1="0.515" y1="0.144" x2="0.508" y2="0.391" gradientUnits="objectBoundingBox">
      <stop offset="0" stop-color="#e8924d"/>
      <stop offset="1" stop-color="#ffb05c"/>
    </linearGradient>
  </defs>
  <g id="BACKGROUND">
    <path id="Path_7" data-name="Path 7" d="M1366,224.334V564.923H0V201.039L308.406,51.689l4.863-2.295,9.107-4.426C361.717,26.154,403.243,8.16,446.227,6.484L447.665,0l1.475,6.375a155.05,155.05,0,0,1,20.763.911,175.705,175.705,0,0,1,31.855,6.757L504.728.856l3.515,15.281,1.166.382,1.512-6.575,1.821,7.741c23.022,8.2,45.187,19.543,67.754,29.4l1.6-6.976,1.967,8.506c20.709,8.87,41.8,16.265,64.257,18.632a188.76,188.76,0,0,0,26.5.765l2.368-10.272L679.5,67.808h1.22L683,57.736l2.222,9.653c23.4-1.639,46.99-5.61,69.866-6.284l1.931-8.378,1.147,5.027,4.226-18.323,4.134,17.977,2.076-8.833,2.914,12.749h-1.566c1.421,0,2.841.146,4.262.237l1.821-7.977,1.912,8.287a116.383,116.383,0,0,1,25.262,5.118l2.131-9.252,2.513,10.928,2.368.965.965-4.153,1.166,5.045c18.669,8.269,33.859,22.22,49.65,35.024,4.863,3.952,9.781,7.777,14.88,11.31l.382-1.694.619,2.313c1.949,1.311,3.916,2.586,5.9,3.807l2.222-9.653,1.821,8.1,1.366-5.974,2.787,12.112c1.056.528,2.131,1.038,3.206,1.53l1.366-5.919,1.657,7.285c1.475.6,2.951,1.166,4.48,1.694l2.04-8.925,2.295,10.272,1.512.437,1-4.426,1.129,4.954c25.845,6.247,52.673.437,79.793-5.282l2.349-10.163,2.113,9.216,3.333-.674,2.5-10.928,2.295,9.944c15.081-2.987,30.2-5.464,45.26-5.045a146.107,146.107,0,0,1,49.722,10.363l1.2-5.227,1.166,5.045,1.821-7.631,2.4,10.564q8.251,3.515,16.283,7.722l1.494-6.429,1.821,8.214c27.9,14.971,54.367,34.879,81.96,51.635a324.919,324.919,0,0,0,29.6,16.155,171.041,171.041,0,0,0,52.6,16.01c4.062.492,8.178.8,12.312.984a367.2,367.2,0,0,0,42.8-1.366C1351.065,225.244,1358.569,224.7,1366,224.334Z" fill="url(#linear-gradient)"/>
    <path id="Path_8" data-name="Path 8" d="M1243.169,285.924a953.651,953.651,0,0,1-287.242-17.758q-13.533-2.914-26.919-6.284c-77.042-19.2-150.679-47.865-223.5-78.937l-.892-3.843-.729,3.151q-8.779-3.752-17.521-7.54l-1.912-8.287-1.566,6.775-.674-.291-.674-2.987-.565,2.459c-64.512-27.994-128.623-57.263-194.1-82.925l-1.038-4.535-.874,3.77-1.821-.729-2.167-9.38-1.821,7.85L474.148,84.5l-1.366-5.919-1.147,4.972-3.552-1.384-2.6-11.31-1.366,5.974-1.821-8.1L459.9,79.094l-5.136-1.821-1.257-4.99-.947,4.171c-21.856-8.032-44.258-15.536-66.934-22.33l-1.821-8.1-1.676,7.012c-3.752-1.111-7.5-2.167-11.256-3.224l-2.659-11.547-1.384,5.974-1.821-8.087L362.445,47.4c-4.517-1.239-9.107-2.422-13.551-3.643l-1.02-4.08-.838,3.643-2.568-.674-2.787-12.057-2.477,10.764q-8.214-2.076-16.483-3.989L320.336,27l-2.149,9.325c-3.278-.729-6.52-1.493-9.8-2.2q-20.617-4.426-41.344-7.868L265.223,18.3,263.51,25.71l-2.532-.419-1.6-6.976-1.493,6.5c-3.023-.474-6.065-.911-9.107-1.348l-1.639-7.1-1.53,6.666c-61.4-8.415-123.086-9.416-182.662.31l-1.639-7.158-1.821,7.722-4.754.838L53.31,18.552l-1.548,6.739c-2.35.437-4.7.892-7.03,1.366l-.4-1.821-.455,1.949c-2.951.6-5.919,1.22-8.87,1.821l-2.022-8.8-2.022,9L26.828,10.83l-4.808,21C14.571,33.706,7.285,35.746,0,38V556.028H1366V266.8A948.939,948.939,0,0,1,1243.169,285.924Z" transform="translate(0 8.895)" fill="#de7e41"/>
  </g>
</svg>
