<svg id="_2" data-name="2" xmlns="http://www.w3.org/2000/svg" xmlns:xlink="http://www.w3.org/1999/xlink" width="1366" height="418.469" viewBox="0 0 1366 418.469">
  <defs>
    <linearGradient id="linear-gradient" x1="0.501" y1="0.011" x2="0.5" y2="0.729" gradientUnits="objectBoundingBox">
      <stop offset="0" stop-color="#912838"/>
      <stop offset="1" stop-color="#bf5047"/>
    </linearGradient>
    <linearGradient id="linear-gradient-2" x1="0.47" y1="0.362" x2="0.556" y2="0.766" gradientUnits="objectBoundingBox">
      <stop offset="0" stop-color="#fffaf2"/>
      <stop offset="0.04" stop-color="#fff7ec" stop-opacity="0.871"/>
      <stop offset="0.1" stop-color="#fff4e3" stop-opacity="0.69"/>
      <stop offset="0.17" stop-color="#fff0db" stop-opacity="0.522"/>
      <stop offset="0.24" stop-color="#ffeed4" stop-opacity="0.38"/>
      <stop offset="0.31" stop-color="#ffebce" stop-opacity="0.259"/>
      <stop offset="0.39" stop-color="#ffe9c9" stop-opacity="0.169"/>
      <stop offset="0.49" stop-color="#ffe8c6" stop-opacity="0.09"/>
      <stop offset="0.59" stop-color="#ffe7c3" stop-opacity="0.039"/>
      <stop offset="0.73" stop-color="#ffe6c1" stop-opacity="0.012"/>
      <stop offset="1" stop-color="#ffe6c1" stop-opacity="0"/>
    </linearGradient>
  </defs>
  <g id="BACKGROUND">
    <path id="Path_3" data-name="Path 3" d="M1354.617,313.907l-232.4-96.44-37.993-15.773-22.384-9.234-3.242-13.97-2.677,11.62-2.932-1.2-5.719-25.189-4.808,20.854-10.363-4.171-3.825-16.683-3.206,13.915-7.231-2.787-6.684-29.141-3.206,13.86-4.389-18.705-6.029,26.191c-3.952-1.493-7.941-2.951-11.911-4.408l-2.095-9.362-1.821,7.9c-13.3-4.845-26.664-9.526-40.069-13.9-36.336-11.857-69.885-20.581-102.924-25.5l-1.821-7.486-1.6,6.994c-9.835-1.4-19.634-2.459-29.451-3.169l-5.009-21.856-3.078,13.915-4.371-18.8-5.938,25.79c-9.781-.255-19.616-.182-29.6.291l-4.116-17.922-4.244,18.414h-1L739.37,78.39l-9.526,41.326c-3.77.437-7.577.911-11.4,1.457L716.094,111.1l-2.513,10.928c-10,1.53-20.162,3.406-30.58,5.664-95.165,20.709-188.144,55.824-284.128,38.9l-1.475-.273-2.459-10.673-2.258,9.762a239.308,239.308,0,0,1-38.248-11.529l-6.356-27.666-4.335,18.8L341.3,134.378l-2.932,12.749C285.02,122.7,236.609,84,181.733,59.7l-1.821-8.232-1.548,6.739a276.59,276.59,0,0,0-33.494-12.075l-2.8-12.749-2.55,11.11a227.214,227.214,0,0,0-23.331-4.827l-2.5-10.819-1.821,8.087-5.755-24.57-5.938,25.5c-2.677-.2-5.464-.364-8.087-.455L87.643,17.867l-4.462,19.4c-4.972,0-10.036.237-15.153.637l-1.239-5.318-1.275,5.464q-10.036.874-20.49,2.75L40.47,21.018,35.716,41.727,26.118,0,15.008,48.211C10.072,49.741,5.082,51.416,0,53.292V418.47H1366V318.733Z" fill="url(#linear-gradient)"/>
    <path id="Path_4" data-name="Path 4" d="M1065.606,2.147V375.265H365.74a78.79,78.79,0,0,1,18.359-35.1,71.045,71.045,0,0,1,7.977-7.54,49.286,49.286,0,0,1,16.829-9.107c9.671-2.878,20.763-1.821,28.923,4.043,1.384-10.764,10.564-18.086,20.709-20.217,6.32-1.348,23.859-.619,27.12,7.559a7.854,7.854,0,0,1,.346,1.111,9.32,9.32,0,0,0-.219-1.166c-2.623-15.062,9.343-30.708,23.258-37.3,14.261-6.739,30.963-6.01,46.444-2.932,5.464-8.232,12.167-14.316,20.6-15.572a24.135,24.135,0,0,1,8.779.383c4.936-17.5,22.129-29.724,40.069-32.42a48.629,48.629,0,0,1,47.008,21.273c14.862-14.115,39.887-14.789,55.278-1.275,16.866-33.367,57.627-49.176,94.6-43.457,1.293.2,2.6.437,3.9.692,0-.856-.182-1.821-.255-2.6-1.439-17.9,3.461-37.41,15.427-50.6a33.578,33.578,0,0,1,2.878-2.932,65.441,65.441,0,0,1,55.806-16.155c2.295-12.294,13-21.637,24.7-26.045a37.483,37.483,0,0,1,28.049.947,35.316,35.316,0,0,1,7.467,4.48,23.4,23.4,0,0,1,1.038-2.55c6.448-14.225,24.5-25.171,38.594-18.96.31-3.388.6-6.757.929-10.108.583-6.01,1.22-11.93,2.167-17.758a93.56,93.56,0,0,1,10.6-32C1023.715,11.491,1044.915-2.588,1065.606,2.147Z" transform="translate(300.394 1.004)" fill="url(#linear-gradient-2)"/>
  </g>
</svg>
