<svg id="_1" data-name="1" xmlns="http://www.w3.org/2000/svg" xmlns:xlink="http://www.w3.org/1999/xlink" width="1366" height="380.914" viewBox="0 0 1366 380.914">
  <defs>
    <linearGradient id="linear-gradient" x1="0.5" y1="0.486" x2="0.503" y2="1.163" gradientUnits="objectBoundingBox">
      <stop offset="0" stop-color="#4a1623"/>
      <stop offset="0.21" stop-color="#511825"/>
      <stop offset="0.5" stop-color="#631c2a"/>
      <stop offset="0.84" stop-color="#812433"/>
      <stop offset="1" stop-color="#912838"/>
    </linearGradient>
  </defs>
  <g id="BACKGROUND">
    <path id="Path_1" data-name="Path 1" d="M1366,29.651V380.914H0v-187.6c45.752-29.141,93.107-55.715,144.887-70.868,6.029-1.821,12.039-3.206,18.031-4.389l10.236-44.513,9.6,41.636c2.9-.273,5.792-.492,8.67-.637l5.009-21.729,4.116,17.9,7.5-32.62,8.469,36.645a232,232,0,0,1,55.4,11.183l2.768-11.966,3.224,13.988a337.038,337.038,0,0,1,66.7,32.912c28.14,17.7,56.935,38.867,84.819,58.629,26.61,18.851,53.584,42.2,88.043,41.4a109.552,109.552,0,0,0,17.867-2.022c3.971-.747,7.9-1.621,11.857-2.568,17.922-4.244,35.68-9.617,53.766-7.285,13.114,1.657,24.9,7.085,36.245,13.879l1.585-6.866,2.113,9.107c3.26,2.058,6.5,4.189,9.726,6.356l8-34.715,10.928,47.264a159.737,159.737,0,0,0,17.139,9.526c1.912.892,3.861,1.73,5.81,2.513,46.1,18.468,99.244,5.154,146.927-10.382q36.773-11.966,73-25.5l10.327-44.8L931.412,253l5.7-2.222,3.971-17.266,3.315,14.425a1864.536,1864.536,0,0,0,177.817-80.922h0l3.643-1.821q37.793-19.725,74.675-41.217l2.368-10.309,1.366-6.211,1.366,5.938,1.512,6.557c4.135-2.422,8.269-4.881,12.385-7.285s8.36-5.027,12.531-7.577l11.11-6.775,3.643-2.2,5.938-25.79,3.97-17.5,4.48,19.434,3.06,13.3c5.318-3.151,10.673-6.284,16.064-9.307l3.06-13.278,2.349,10.254a352.106,352.106,0,0,1,56.461-25.7l1.311-5.7,3.879-16.9.109-.437.109.437,2.9,12.6,2.914-12.658L1359.17,0,1366,24.7Z" fill="url(#linear-gradient)"/>
    <path id="Path_2" data-name="Path 2" d="M1318.773,231.446l-19.616-34.35-13.114,40.889-9.617-22.84-10.363,33.6-3.807.164-13.15-57.627L1242.86,230.9l-12.913-56.552-12.057,76.5h-.164l-6.757-25.189-6.484,25.863q-26.773,1.366-53.62,3.042l-10-28.595-5.61,20.271-9.8-35.716-7.012,44.513-6.557-19.506-6.338,22.056-19.452,1.4-3.643-16.392-3.515,16.866-7.8.6-7.85-34.423-7.03,35.589q-9.107.71-18.213,1.475l-4.881-14.17-4.79,14.971q-39.013,3.3-77.771,7.1l-9.252-28.613-7.285,26.5-13.1-34.259-12.731,40.834-15.026,1.585-5.792-25.408-4.189,26.5-4.918.528-10.054-43.985L860.981,280.2q-31.436,3.552-62.417,7.285l-11.547-26.245L779.6,285.613,774.267,269l-4.9,22.166q-39.013,4.99-77.024,10.382l-13.3-49.486-12.13,53.128-16.283,2.4-2.787-12.276-3.5,13.2q-14.042,2.095-27.885,4.244L597.8,252.246l-20.235,52.983L566.2,264.249l-16.082,49.8q-22.166-3.388-43.712-6.52l-15.755-49.176L475.2,303.1l-15.718-2.2-15.427-77.953-16.793,73.582-3.06-.4-9.762-46.954-10.109,44.313q-10.236-1.348-20.326-2.6l-15.281-52.819-10.145,30.179L347.747,199.5l-15.154,55.241-8.67-31.363-19.507,55.769-16.866.383q-30.744-3.442-59.394-6.284l-12.64-50.4-10.436,38.977L186.177,143.44l-19.634,89.737-9.908-63.492L134.779,264.74l-2.677-.219-17.885-57.955L99.354,241.883,79.137,178.646,48.812,231.774,11.62,66.47,0,106.1V326.32H1366V202.87c-10.309-35.662-23.186-78.317-23.186-78.317Z" transform="translate(0 54.594)" fill="#2c0c19"/>
  </g>
</svg>
